<!-- Copyright 2025 Jelly Terra <jellyterra@proton.me> -->
<!-- -->
<!-- Licensed under the Apache License, Version 2.0 (the "License"); -->
<!-- you may not use this file except in compliance with the License. -->
<!-- You may obtain a copy of the License at -->
<!-- -->
<!--     http://www.apache.org/licenses/LICENSE-2.0 -->
<!-- -->
<!-- Unless required by applicable law or agreed to in writing, software -->
<!-- distributed under the License is distributed on an "AS IS" BASIS, -->
<!-- WITHOUT WARRANTIES OR CONDITIONS OF ANY KIND, either express or implied. -->
<!-- See the License for the specific language governing permissions and -->
<!-- limitations under the License. -->

<svg width="50" height="50" viewBox="0 0 50 50" fill="#ff006f" xmlns="http://www.w3.org/2000/svg">
    <g transform="translate(-65.000002,-135.00003)">
        <path d="m 90.050866,135.00003 a 25.049818,25.000233 0 0 0 -25.050864,25.0013 25.049818,25.000233 0 0 0 25.050864,24.99868 25.049818,25.000233 0 0 0 24.869654,-22.50011 H 82.535122 a 2.5049818,2.5000235 0 0 1 -2.503516,-2.49857 2.5049818,2.5000235 0 0 1 2.503516,-2.5012 h 32.439768 a 25.049818,25.000233 0 0 0 -24.924024,-22.5001 z m -15.028924,22.5001 a 2.5049818,2.5000235 0 0 1 2.503519,2.5012 2.5049818,2.5000235 0 0 1 -2.503519,2.49857 2.5049818,2.5000235 0 0 1 -2.506145,-2.49857 2.5049818,2.5000235 0 0 1 2.506145,-2.5012 z"/>
    </g>
</svg>
